<?xml version="1.0" encoding="utf-8"?>
<!-- Generator: Adobe Illustrator 23.0.1, SVG Export Plug-In . SVG Version: 6.00 Build 0)  -->
<svg version="1.1" xmlns="http://www.w3.org/2000/svg" xmlns:xlink="http://www.w3.org/1999/xlink" x="0px" y="0px"
	 viewBox="0 0 500 500" style="enable-background:new 0 0 500 500;" xml:space="preserve">
<style type="text/css">
	.st0{fill:#F0F0F0;}
	.st1{fill:#EBEBEB;}
	.st2{fill:#E6E6E6;}
	.st3{fill:#FFFFFF;}
	.st4{display:none;}
	.st5{display:inline;}
	.st6{fill:#577AFA;}
	.st7{opacity:0.8;enable-background:new    ;}
	.st8{fill:#F5F5F5;}
	.st9{fill:#F43397;}
	.st10{opacity:0.3;fill:#FFFFFF;enable-background:new    ;}
	.st11{opacity:0.1;fill:#FFFFFF;enable-background:new    ;}
	.st12{opacity:0.1;enable-background:new    ;}
	.st13{display:none;fill:#FFFFFF;}
	.st14{fill:#263238;}
	.st15{opacity:0.3;fill:#FFFFFF;}
	.st16{opacity:0.1;fill:#FFFFFF;}
	.st17{opacity:0.2;enable-background:new    ;}
	.st18{opacity:0.6;enable-background:new    ;}
	.st19{opacity:0.6;fill:#FFFFFF;enable-background:new    ;}
	.st20{opacity:0.4;fill:#FFFFFF;}
	.st21{opacity:0.3;fill:#263238;}
	.st22{opacity:0.7;fill:#FFFFFF;enable-background:new    ;}
	.st23{fill:#E4897B;}
	.st24{fill:#FC97D1;}
	.st25{opacity:0.2;fill:#FC97D1;enable-background:new    ;}
	.st26{fill:#DE5753;}
	.st27{fill:none;stroke:#263238;stroke-width:0.7073;stroke-linecap:round;stroke-linejoin:round;stroke-miterlimit:10;}
	.st28{opacity:0.1;}
	.st29{fill:#2E353A;}
	.st30{opacity:0.2;}
	.st31{opacity:0.3;}
	.st32{opacity:0.2;fill:#FFFFFF;}
	.st33{opacity:0.2;fill:#2E353A;}
</style>
<g id="Background_Complete">
	<path class="st0" d="M439.3,153.4c0.1-0.6,0.2-1.2,0.2-1.8c0-6.2-5-11.3-11.3-11.3c-0.6,0-1.2,0.1-1.8,0.2c-2.2-3.7-6.3-6.3-11-6.3
		c-5.9,0-10.9,4-12.4,9.4c-0.8-0.2-1.6-0.4-2.5-0.4c-4.6,0-8.4,3.7-8.4,8.4c0,0.6,0.1,1.2,0.2,1.8H439.3z"/>
	<path class="st0" d="M145,108.9c0.2-1,0.3-2,0.3-3c0-10.7-8.7-19.4-19.4-19.4c-1.1,0-2.1,0.1-3.1,0.3c-3.9-6.4-10.9-10.8-19-10.8
		c-10.1,0-18.7,6.8-21.3,16.1c-1.3-0.4-2.8-0.6-4.3-0.6c-7.9,0-14.4,6.4-14.4,14.4c0,1,0.1,2.1,0.3,3H145z"/>
	<g>
		<rect y="382.4" class="st1" width="500" height="0.3"/>
		<rect x="416.8" y="398.5" class="st1" width="33.1" height="0.3"/>
		<rect x="322.5" y="401.2" class="st1" width="8.7" height="0.3"/>
		<rect x="396.6" y="389.2" class="st1" width="19.2" height="0.3"/>
		<rect x="52.5" y="390.9" class="st1" width="43.2" height="0.3"/>
		<rect x="104.6" y="390.9" class="st1" width="6.3" height="0.3"/>
		<rect x="131.5" y="395.1" class="st1" width="93.7" height="0.3"/>
		<path class="st1" d="M237,337.8H43.9c-3.1,0-5.7-2.6-5.7-5.7V60.7c0-3.1,2.6-5.7,5.7-5.7H237c3.1,0,5.7,2.6,5.7,5.7v271.4
			C242.7,335.2,240.2,337.8,237,337.8z M43.9,55.2c-3,0-5.5,2.4-5.5,5.5v271.4c0,3,2.4,5.5,5.5,5.5H237c3,0,5.5-2.4,5.5-5.5V60.7
			c0-3-2.4-5.5-5.5-5.5H43.9z"/>
		<path class="st1" d="M453.3,337.8H260.2c-3.1,0-5.7-2.6-5.7-5.7V60.7c0-3.1,2.6-5.7,5.7-5.7h193.1c3.1,0,5.7,2.6,5.7,5.7v271.4
			C459,335.2,456.5,337.8,453.3,337.8z M260.2,55.2c-3,0-5.5,2.4-5.5,5.5v271.4c0,3,2.4,5.5,5.5,5.5h193.1c3,0,5.5-2.4,5.5-5.5V60.7
			c0-3-2.4-5.5-5.5-5.5H260.2z"/>
	</g>
	<g>
		<polygon class="st0" points="37.9,353.5 37.9,287 69.9,287 69.9,268.8 85.3,268.8 85.3,215.4 105.1,195.6 145.3,195.6 
			145.3,252.8 200.4,252.8 200.4,264.1 239.4,264.1 239.4,249.3 281.3,249.3 281.3,238.1 314,238.1 314,171.7 371.9,171.7 
			371.9,214 385.2,214 385.2,229.3 416.2,229.3 416.2,254.4 432.8,254.4 445.5,267.2 445.5,280.1 458.2,280.1 458.2,353.5 		"/>
		<polygon class="st2" points="76.9,287 70.5,287 69.9,286.6 69.9,287 37.9,287 37.9,353.5 76.9,353.5 		"/>
		<polygon class="st2" points="240,254.1 240,264.1 238.4,264.1 236.7,274.9 241.4,353.5 294.3,353.5 294.3,249.3 281.8,249.3 
			240.7,249.3 		"/>
		<polygon class="st2" points="362.9,229.3 362.9,353.5 458.8,353.5 458.8,280.1 446.1,280.1 446.1,267.2 433.3,254.4 416.8,254.4 
			416.8,229.3 388.7,229.3 385.8,229.3 		"/>
		<g>
			<g>
				<g>
					<rect x="427.6" y="261.2" class="st3" width="5.8" height="5.8"/>
				</g>
				<g>
					<rect x="417.4" y="261.2" class="st3" width="5.8" height="5.8"/>
				</g>
			</g>
			<g>
				<g>
					<rect x="427.6" y="272" class="st3" width="5.8" height="5.8"/>
				</g>
				<g>
					<rect x="417.4" y="272" class="st3" width="5.8" height="5.8"/>
				</g>
			</g>
		</g>
		<g>
			<g>
				<g>
					<rect x="396" y="234" class="st3" width="5.8" height="5.8"/>
				</g>
				<g>
					<rect x="385.8" y="234" class="st3" width="5.8" height="5.8"/>
				</g>
			</g>
		</g>
		<g>
			<g>
				<g>
					<rect x="64.4" y="296.4" class="st3" width="5.8" height="5.8"/>
				</g>
				<g>
					<rect x="54.2" y="296.4" class="st3" width="5.8" height="5.8"/>
				</g>
			</g>
		</g>
		<g>
			<g>
				<g>
					
						<rect x="281.8" y="266.3" transform="matrix(-1.836970e-16 1 -1 -1.836970e-16 553.8892 -15.5335)" class="st3" width="5.8" height="5.8"/>
				</g>
				<g>
					
						<rect x="281.8" y="256.1" transform="matrix(-1.836970e-16 1 -1 -1.836970e-16 543.6586 -25.764)" class="st3" width="5.8" height="5.8"/>
				</g>
			</g>
		</g>
	</g>
</g>
<g id="Background_Simple" class="st4">
	<g class="st5">
		<g>
			<path class="st6" d="M390,96.1c-58.5-28.2-107.5,14-119.4,50c-11.9,36-34.4,51-61.5,38.2C182,171.4,135.8,118,77.5,162
				c-58.3,44,28.4,143.6,149.5,171c66.2,15,159.5,26.1,194.7-61.4C442.7,219.4,437.1,118.8,390,96.1z"/>
		</g>
		<g class="st7">
			<path class="st3" d="M390,96.1c-58.5-28.2-107.5,14-119.4,50c-11.9,36-34.4,51-61.5,38.2C182,171.4,135.8,118,77.5,162
				c-58.3,44,28.4,143.6,149.5,171c66.2,15,159.5,26.1,194.7-61.4C442.7,219.4,437.1,118.8,390,96.1z"/>
		</g>
	</g>
</g>
<g id="Shadow_1_">
	<ellipse id="_x3C_Path_x3E__359_" class="st8" cx="248.1" cy="416.2" rx="193.9" ry="11.3"/>
</g>
<g id="Box_1_">
	<g>
		<g>
			<g>
				<g>
					<g>
						<rect x="388.9" y="366.9" class="st9" width="54.6" height="45.2"/>
						<rect x="388.9" y="366.9" class="st10" width="54.6" height="45.2"/>
						<rect x="360" y="366.9" class="st9" width="42.3" height="45.2"/>
						<rect x="360" y="366.9" class="st11" width="42.3" height="45.2"/>
					</g>
				</g>
				<rect x="375.2" y="366.9" class="st10" width="12" height="14.1"/>
				<rect x="419.9" y="366.9" class="st12" width="12" height="14.1"/>
			</g>
		</g>
		<g>
			<path class="st13" d="M420.6,393.5c-0.5,0-1.1,0-1.6,0c0-0.5,0-0.9,0-1.4c0.1-0.7,0.6-2.1,1.6-1.5c0.3,0.2,0.7-0.2,0.4-0.4
				c-1-0.7-2.1,0-2.4,1.1c-0.2,0.7-0.1,1.4-0.1,2.1c-0.3,0-0.6,0-0.9,0c-0.4,0-0.5,0.6-0.1,0.6c0.3,0,0.7,0,1,0c0,0.9,0,1.8,0,2.6
				c0,0.4,0.6,0.3,0.6-0.1c0-0.9,0-1.7,0-2.6c0.5,0,1,0,1.5,0C420.8,394.1,420.9,393.5,420.6,393.5z"/>
			<path class="st13" d="M423.2,392.3c0,0-0.1,0-0.1,0c-2.6-0.2-2.2,4.1,0.3,4c1.1,0,1.8-1.2,1.8-2.2
				C425.2,392.9,424.3,392.1,423.2,392.3z M423.6,395.7c-1.9,0.5-2.5-3-0.6-2.8c0.1,0,0.1,0,0.2,0c0,0,0,0,0,0
				C425,392.6,425,395.3,423.6,395.7z"/>
			<path class="st13" d="M429.4,393.3c-0.8-2.5-4.6-0.5-3.5,1.8c0.5,1,1.8,1.2,2.8,0.8C429.7,395.6,430,394.4,429.4,393.3
				C429.4,393.4,429.4,393.4,429.4,393.3z M426.3,394.8c-0.5-1.5,2-3,2.6-1.2c0,0.1,0.1,0.1,0.1,0.1c0,0,0,0,0,0
				C429.9,395.5,426.8,396.3,426.3,394.8z"/>
			<path class="st13" d="M433.7,396.1c-0.2-2.3-0.3-4.6-0.5-6.9c0-0.4-0.6-0.3-0.6,0.1c0.1,1,0.1,1.9,0.2,2.9
				c-1.3-0.4-2.7,0.4-2.7,1.9c-0.1,1.5,1.7,2.1,3,1.9c0,0.1,0,0.1,0,0.2C433.2,396.5,433.7,396.5,433.7,396.1z M430.7,394.3
				c-0.2-1.1,1-1.9,2-1.6c0.1,0,0.1,0,0.2,0c0.1,0.9,0.1,1.8,0.2,2.6C432.2,395.5,430.8,395.3,430.7,394.3z"/>
		</g>
	</g>
</g>
<g id="Device">
	<g>
		<g>
			<path class="st14" d="M250,95.5H115c-8.3,0-15,6.7-15,15V392c0,8.3,6.7,15,15,15h135c8.3,0,15-6.7,15-15V110.5
				C265,102.2,258.3,95.5,250,95.5z"/>
			<rect x="110.7" y="116.3" class="st9" width="143.6" height="250.6"/>
			<rect x="110.7" y="342" class="st15" width="143.6" height="24.8"/>
			<g>
				<path class="st16" d="M254.3,219.4c-36.5,36.3-104.1,104.2-143.6,144v3.5h80.3l63.4-63.4V219.4z"/>
			</g>
			<path class="st16" d="M110.7,242.3l126-126h-58.9c-15.6,15.5-42.3,42.2-67.1,67.1V242.3z"/>
			<polygon class="st16" points="110.7,295 254.3,151.3 254.3,120.6 110.7,264.2 			"/>
			<rect x="110.7" y="116.3" class="st17" width="143.6" height="11.3"/>
			<ellipse transform="matrix(0.9871 -0.1602 0.1602 0.9871 -59.16 34.1923)" class="st9" cx="182.5" cy="384" rx="9.8" ry="9.8"/>
			<g class="st18">
				
					<rect x="126.2" y="121.6" transform="matrix(-1 -1.224647e-16 1.224647e-16 -1 254.6142 246.141)" class="st19" width="2.2" height="2.9"/>
				
					<rect x="122.7" y="120.7" transform="matrix(-1 -1.224647e-16 1.224647e-16 -1 247.5284 245.1742)" class="st19" width="2.2" height="3.9"/>
				
					<rect x="119.1" y="119.7" transform="matrix(-1 -1.224647e-16 1.224647e-16 -1 240.4427 244.2074)" class="st19" width="2.2" height="4.8"/>
				
					<rect x="115.6" y="118.7" transform="matrix(-1 -1.224647e-16 1.224647e-16 -1 233.3569 243.2405)" class="st19" width="2.2" height="5.8"/>
			</g>
			<g>
				<rect x="237.8" y="120.6" class="st19" width="1.3" height="2.9"/>
				
					<rect x="240" y="119.5" transform="matrix(-1 -1.224647e-16 1.224647e-16 -1 490.1763 244.0257)" class="st19" width="10.3" height="5"/>
			</g>
			<path class="st20" d="M189.7,266c-3.3-2.9-7.2,1.1-7.2,1.1s-3.9-4-7.2-1.1c-4.7,4.2,2.1,11.7,7.2,13.2
				C187.5,277.7,194.4,270.2,189.7,266z"/>
			<g>
				<path class="st3" d="M223.6,287h-82.3c-5.2,0-9.4,4.2-9.4,9.4c0,5.2,4.2,9.4,9.4,9.4h82.3c5.2,0,9.4-4.2,9.4-9.4
					C233,291.2,228.8,287,223.6,287z"/>
				<g>
					<path class="st9" d="M155.4,301.4v-9.9h3.6c0.8,0,1.5,0.1,2.1,0.4c0.6,0.3,1.1,0.6,1.5,1.1c0.4,0.4,0.7,1,0.9,1.6
						c0.2,0.6,0.3,1.2,0.3,1.9c0,0.8-0.1,1.4-0.3,2.1c-0.2,0.6-0.6,1.1-1,1.6c-0.4,0.4-0.9,0.8-1.5,1c-0.6,0.2-1.3,0.4-2,0.4H155.4z
						 M161.9,296.4c0-0.5-0.1-0.9-0.2-1.3c-0.1-0.4-0.3-0.7-0.6-1s-0.6-0.5-0.9-0.7c-0.4-0.2-0.8-0.2-1.2-0.2h-1.7v6.6h1.7
						c0.5,0,0.9-0.1,1.3-0.3c0.4-0.2,0.7-0.4,0.9-0.7c0.2-0.3,0.4-0.6,0.6-1C161.8,297.3,161.9,296.8,161.9,296.4z"/>
					<path class="st9" d="M169.5,301.4c-0.7,0-1.4-0.1-2-0.4c-0.6-0.3-1.1-0.7-1.5-1.1c-0.4-0.5-0.7-1-1-1.6
						c-0.2-0.6-0.3-1.2-0.3-1.9c0-0.7,0.1-1.3,0.4-1.9c0.2-0.6,0.6-1.1,1-1.6c0.4-0.5,0.9-0.8,1.5-1.1c0.6-0.3,1.2-0.4,1.9-0.4
						c0.7,0,1.4,0.1,2,0.4c0.6,0.3,1.1,0.7,1.5,1.2c0.4,0.5,0.7,1,1,1.6c0.2,0.6,0.3,1.2,0.3,1.8c0,0.7-0.1,1.3-0.4,1.9
						c-0.2,0.6-0.6,1.1-1,1.6c-0.4,0.5-0.9,0.8-1.5,1.1C170.9,301.3,170.2,301.4,169.5,301.4z M166.7,296.4c0,0.4,0.1,0.8,0.2,1.2
						c0.1,0.4,0.3,0.8,0.6,1.1c0.2,0.3,0.5,0.6,0.9,0.7c0.4,0.2,0.8,0.3,1.2,0.3c0.5,0,0.9-0.1,1.2-0.3c0.4-0.2,0.7-0.4,0.9-0.8
						c0.2-0.3,0.4-0.7,0.6-1.1c0.1-0.4,0.2-0.8,0.2-1.2c0-0.4-0.1-0.8-0.2-1.2c-0.1-0.4-0.3-0.8-0.6-1.1c-0.2-0.3-0.5-0.6-0.9-0.7
						c-0.4-0.2-0.8-0.3-1.2-0.3c-0.5,0-0.9,0.1-1.2,0.3c-0.4,0.2-0.7,0.4-0.9,0.8c-0.2,0.3-0.4,0.7-0.5,1.1
						C166.7,295.6,166.7,296,166.7,296.4z"/>
					<path class="st9" d="M177.7,295v6.4h-1.9v-9.9h1.5l5.1,6.5v-6.5h1.9v9.9h-1.6L177.7,295z"/>
					<path class="st9" d="M189.2,291.4h1.7l3.7,9.9h-2l-0.9-2.5h-3.4l-0.9,2.5h-2L189.2,291.4z M191.4,297.5l-1.4-3.9l-1.4,3.9
						H191.4z"/>
					<path class="st9" d="M202.1,293.1H199v8.2h-1.9v-8.2h-3.2v-1.7h8.2V293.1z"/>
					<path class="st9" d="M210.2,299.7v1.7h-6.8v-9.9h6.7v1.7h-4.8v2.4h4.2v1.6h-4.2v2.6H210.2z"/>
				</g>
			</g>
		</g>
		<g>
			<polygon class="st21" points="265,184.4 234.8,188.7 242.7,244.7 265,242.4 			"/>
			<g>
				<g>
					<circle class="st22" cx="183.9" cy="199" r="55.5"/>
				</g>
				<g>
					<path class="st23" d="M203.8,165.1c0,0,11.3,16.8,17.7,17.4c6.4,0.7,31.2-20.7,31.2-20.7l4.2,3.6c0,0-23.7,26-33.6,27.5
						c-9.9,1.5-28.7-18.1-28.7-18.1L203.8,165.1z"/>
					<path class="st9" d="M201.1,166.3c0,0,4-3.9,9.5,2.9c5.5,6.8,7.8,8.2,7.8,8.2l-14,13.7C204.3,191.1,196.1,169.9,201.1,166.3z"
						/>
					<g>
						<g>
							<path class="st23" d="M250.7,160.2c0,0,0.5-6.3,2-6.7c1.5-0.4,0.9,4.3,0.9,4.3s7.7-4.7,9.3-4.3c1.6,0.4,1.3,3.5,1,4.3
								c-2.4,7-10.8,9.9-10.8,9.9l-3.4-3.2L250.7,160.2z"/>
						</g>
					</g>
					<path class="st14" d="M193,148.4c0,0,7.7,12.9,5.4,20.9c-2.4,8.1-14.6,0.8-14.6,0.8l0.1-16L193,148.4z"/>
					<path class="st14" d="M172.3,126.2c0,0-11.4,5.8-6.9,26.2c7.5,34.2,18.6,20,18.6,20s-0.5-13.5-5-20c-4.6-6.5-3.6-15.9-3.6-15.9
						L172.3,126.2z"/>
					<g>
						<path class="st24" d="M205.4,216.4l-34.3,3c-0.5-8.5-1.1-15-3.6-25.2c-0.8-3.3-1.8-6.9-3.2-11.2c-0.7-2.3-1.5-4.7-2.4-7.3
							c-0.7-2-1.4-4.1-2.1-6.3c4.7-1.5,9.4-2.6,14.2-3.4c5.1-0.9,10.2-1.4,15.4-1.6c6.7-0.1,14.3,0.7,14.3,0.7s1.1,0.3,1.8,7.3
							C206.2,179,206.8,192.3,205.4,216.4z"/>
						<path class="st25" d="M205.4,216.4l-34.3,3c-0.5-8.5-1.1-15-3.6-25.2c-0.8-3.3-1.8-6.9-3.2-11.2c-0.7-2.3-1.5-4.7-2.4-7.3
							c-0.7-2-1.4-4.1-2.1-6.3c4.7-1.5,9.4-2.6,14.2-3.4c5.1-0.9,10.2-1.4,15.4-1.6c6.7-0.1,14.3,0.7,14.3,0.7s1.1,0.3,1.8,7.3
							C206.2,179,206.8,192.3,205.4,216.4z"/>
						<path class="st25" d="M171,216.8c5.5-2.1,23.6-11,23.6-11l-24,5.4C170.7,213.1,170.8,214.9,171,216.8z"/>
					</g>
					<path class="st23" d="M186.6,171.9c-8.4-1.1-11-4.7-11-4.7c5.4-5.1,0.9-13.8,0.9-13.8l10.2,1.9c-0.3,1.7-0.4,3.1-0.4,4.3
						c-0.1,6.2,2.7,6.2,2.7,6.2C190.8,169.2,186.6,171.9,186.6,171.9z"/>
					<path class="st17" d="M186.7,155.3c-0.3,1.7-0.4,3.1-0.4,4.3c-6.9,0-9.8-6.2-9.8-6.2L186.7,155.3z"/>
					<path class="st23" d="M182.2,126.9c8.8-0.5,10.8,3.8,12,12.8c1.4,11.3-0.6,19.9-11.8,18.1c-12.3-2-15.7-21.4-8.3-28.9
						C175.8,127.2,179.3,127,182.2,126.9z"/>
					<path class="st26" d="M188.4,140.8c0,0,1.4,2.2,2.8,3.5c0,0-0.7,1.2-2.3,1.1L188.4,140.8z"/>
					<path class="st14" d="M183.1,139.8c0.5-0.2,0.9-0.9,0.9-0.9l-1.5,0.7c0,0,0,0,0,0c-0.4,0.2-0.7,0.7-0.6,1.3
						c0.1,0.7,0.5,1.3,1,1.2c0.5,0,0.8-0.7,0.8-1.4C183.6,140.4,183.4,140,183.1,139.8z"/>
					<path class="st14" d="M191.7,139c0.5-0.2,0.9-0.9,0.9-0.9l-1.5,0.7c0,0,0,0,0,0c-0.4,0.2-0.7,0.7-0.6,1.3
						c0.1,0.7,0.5,1.3,1,1.2c0.5,0,0.8-0.7,0.8-1.4C192.1,139.6,191.9,139.2,191.7,139z"/>
					<path class="st27" d="M183.1,135.7c0,0-2.5-0.2-3.8,1.5"/>
					<path class="st27" d="M188.5,135.4c0,0,1.4-1,3.6-0.2"/>
					<path class="st23" d="M167.8,168.2c0,0,9.9,8,19.1,7.9c9.2-0.1,12.5-10.5,12.5-10.5S185.1,161.3,167.8,168.2z"/>
					<path class="st23" d="M153.2,188.3c0,0-3.1,18.4-2.7,23.6c0.4,5.2,8.3,5.4,12.7,4.9c5.1-0.6,31.9-11.2,31.9-11.2l-1.2-5.3
						c0,0-20.9,5.6-29.8,6.7c-1.8,0.2-3.3-1.4-3-3.1l2.1-13.7L153.2,188.3z"/>
					<path class="st9" d="M159.8,169.4c0,0,5.5-1.2,6.5,7.5c1.1,8.7-2,15.5-2,15.5l-13.9-2.5C150.5,189.9,153.7,169.9,159.8,169.4z"
						/>
					<path class="st23" d="M200.7,195c-0.4-0.2-0.8-0.3-1.1-0.2c-1.6,0.4-6.6,5.4-6.9,6l1.3,4.7c0,0,2.6,1.4,3.9,1
						c1.3-0.4,7.7-5.1,7.7-6.3c0-0.1,0-0.1,0-0.2c0.2-0.2,0.4-0.3,0.6-0.4C207.2,198.9,203.1,195.9,200.7,195z"/>
					<path class="st14" d="M181.6,126.9c0,0,1.1,11.1-8.1,11.5c-9.2,0.4-1.5-9.9-1.5-9.9L181.6,126.9z"/>
					<path class="st14" d="M179.6,123.5c-15.2,0.5-13.9,22.7-5.7,28.9c0,0-4-5.4-1.7-10.1c0,0,3-7.2,2-12.8c0,0,3.4-1.6,7.4-1.9
						c1.7,2.1,6,8.4,11.6,8.3c0.2,0.9,0.6,1.9,0.7,3C194,138.9,194.9,123,179.6,123.5z"/>
					<path class="st14" d="M190.7,149.7L190.7,149.7c-1.7,0.9-3.8,1-5.6,0.1c-0.1-0.1-0.1-0.2-0.1-0.3c0.1-0.1,0.2-0.1,0.3-0.1
						c0,0,0,0,0,0c1.7,0.8,3.6,0.7,5.2-0.1c0.1-0.1,0.2,0,0.3,0.1c0,0,0,0,0,0C190.9,149.6,190.9,149.7,190.7,149.7
						C190.8,149.7,190.7,149.7,190.7,149.7z"/>
					<path class="st23" d="M173.8,144.1c-0.1-1.4-1.7-3.7-4.4-3.3c-2.7,0.4-3.7,6.1,3.2,7.1C173.6,148,174.1,147.1,173.8,144.1z"/>
					<path class="st9" d="M172.8,184.5l9.2-1.3c0,0,3,9.8-2.5,10.9C173.5,195.2,172.8,184.5,172.8,184.5z"/>
				</g>
				<path class="st14" d="M207.4,237.4c-0.5-4.5-1.2-10.7-2.1-15.6l0.1-5.4l-34.3,3l-0.3,5c-0.8,1.5-4.3,8.8-5.9,26.7
					c5.9,2.1,12.3,3.3,18.9,3.3c9,0,17.5-2.2,25-6L207.4,237.4z"/>
			</g>
		</g>
	</g>
</g>
<g id="Character">
	<g>
		<path class="st23" d="M294.3,220.8l-17.4,4.4c0,0-2.1-1.4-4.5-0.9c-2.5,0.5-8.6,5.5-8.4,6.2c0.2,0.7,7.7,4.2,8.8,3.9
			c3.8-1,7.8-5.5,7.8-5.5l15.6-3.2L294.3,220.8z"/>
		<g>
			<path class="st23" d="M338,158.1c-3.5,3.8-12.9,3.4-12.9,3.4s-3.1,0.3-3.9-2.4c3.4-0.8,3.9-3.3,4.4-5.4c0.3-1.2,0.3-2.6,0-4
				c-0.1-0.7-0.3-1.5-0.5-2.2l10.9-9.5C335.1,144,334,154.3,338,158.1z"/>
			<path class="st17" d="M333.9,143.9c0.1,7-5.5,9.3-8.2,9.9c0.3-1.2,0.3-2.6,0-4L333.9,143.9z"/>
			<path class="st23" d="M334.8,145.4c-2.5,4.2-6.9,5.6-11,4.7c-2.6-0.6-5-2.2-6.6-4.6c-0.2-0.3-0.4-0.6-0.6-1
				c-3.3-6.4-5.2-17.8,1.5-22.7c4.7-3.5,11.4-2.5,14.9,2.2c1,1.3,1.7,2.9,2,4.5C336.4,136.2,337.7,140.6,334.8,145.4z"/>
			<path class="st14" d="M323.6,134.1c0.2,0.6,0,1.2-0.4,1.3c-0.4,0.1-0.9-0.3-1-0.9c-0.2-0.6,0-1.2,0.4-1.3
				C323,133,323.5,133.4,323.6,134.1z"/>
			<path class="st14" d="M316.9,135.5c0.2,0.6,0,1.2-0.4,1.3c-0.4,0.1-0.9-0.3-1-0.9c-0.2-0.6,0-1.2,0.4-1.3
				C316.3,134.4,316.7,134.9,316.9,135.5z"/>
			<path class="st26" d="M319.3,135.7c-0.3,2.1-0.6,3.9-1.4,5.9c1,0.4,2.4-0.2,3.3-0.7L319.3,135.7z"/>
			<path class="st14" d="M325.6,130.8c-0.1,0.1-0.3,0-0.4-0.1c-0.7-0.6-1.7-0.8-2.6-0.6c-0.2,0.1-0.4,0-0.5-0.2
				c-0.1-0.2,0-0.4,0.2-0.5c0,0,0,0,0,0c1.1-0.3,2.4,0,3.3,0.7c0.2,0.1,0.2,0.4,0.1,0.5c0,0,0,0,0,0
				C325.7,130.7,325.7,130.7,325.6,130.8z"/>
			<path class="st14" d="M322.7,143.8L322.7,143.8c1.8-0.2,3.5-1.3,4.4-2.9c0-0.1,0-0.2-0.1-0.3c-0.1,0-0.2,0-0.3,0.1c0,0,0,0,0,0
				c-0.9,1.5-2.4,2.5-4.1,2.7c-0.1,0-0.2,0.1-0.2,0.2c0,0,0,0,0,0C322.5,143.7,322.6,143.8,322.7,143.8
				C322.7,143.8,322.7,143.8,322.7,143.8z"/>
			<path class="st14" d="M313.5,133.7c-0.1,0-0.1,0.1-0.2,0.1c-0.2,0-0.3-0.2-0.3-0.4c0,0,0,0,0,0c0.2-1.2,1-2.2,2.1-2.7
				c0.2-0.1,0.4,0,0.5,0.2c0,0,0,0,0,0c0.1,0.2,0,0.4-0.2,0.5l0,0c-0.8,0.4-1.4,1.2-1.6,2.2C313.7,133.6,313.6,133.6,313.5,133.7z"
				/>
			<path class="st23" d="M339.8,133.9c-0.4,1.9-1.6,3.6-3.2,4.7c-2.2,1.4-4-0.4-4.1-2.8c0-2.2,1.1-5.6,3.6-6
				C338.7,129.3,340.3,131.5,339.8,133.9z"/>
		</g>
		<path class="st9" d="M305.4,164.1c0,0-5.4,4.6-8,13c-1.9,6-3.6,20.1-4.5,27.8c-0.3,3.1-2.7,5.5-5.7,6.1l-21.1,3.7l1.7,10.7
			l26.7-2.6c5.9-0.6,10.7-4.9,11.8-10.7c1.6-8.3,3.8-20.2,4.8-29.7C312.8,166.2,311,162.4,305.4,164.1z"/>
		<path class="st28" d="M305.4,164.1c0,0-5.4,4.6-8,13c-1.9,6-3.6,20.1-4.5,27.8c-0.3,3.1-2.7,5.5-5.7,6.1l-21.1,3.7l1.7,10.7
			l26.7-2.6c5.9-0.6,10.7-4.9,11.8-10.7c1.6-8.3,3.8-20.2,4.8-29.7C312.8,166.2,311,162.4,305.4,164.1z"/>
		<polygon class="st23" points="290.6,402.1 282.7,400.2 287.2,383.2 295.1,385.1 		"/>
		<path class="st29" d="M282.8,397.4l9,3.2c0.3,0.1,0.5,0.4,0.4,0.7l-0.9,7.1c-0.1,0.6-0.7,1.1-1.3,1c-0.1,0-0.2,0-0.2-0.1
			c-2.9-1.1-4.9-2-8.6-3.4c-2.2-0.8-9.1-3-12.2-4.1c-3.1-1.1-2.4-4.3-1-4.2c6.1,0.8,11.1,0.6,13.5-0.3
			C281.8,397.2,282.3,397.2,282.8,397.4z"/>
		<path class="st9" d="M279.9,397.8c-0.5-0.1-1-0.5-1.3-0.9c-0.2-0.3-0.2-0.7,0-1.1c0.1-0.2,0.3-0.4,0.5-0.4c1-0.1,2.8,2.2,3,2.5
			c0.1,0.1,0.1,0.1,0,0.2c0,0.1-0.1,0.1-0.2,0.1C281.2,398.2,280.5,398,279.9,397.8z M279.3,395.9c-0.1,0-0.2,0-0.2,0
			c0,0-0.1,0-0.2,0.2c-0.1,0.2-0.1,0.5,0,0.7c0.7,0.7,1.6,1.1,2.6,1.1C280.9,397,280.1,396.4,279.3,395.9z"/>
		<path class="st9" d="M281.8,398.2L281.8,398.2c-0.7-0.7-1.6-2.9-1.2-3.6c0.2-0.2,0.5-0.4,0.7-0.3c0.3,0.1,0.5,0.2,0.7,0.5
			c0.6,1,0,3.2,0,3.3C282,398.2,282,398.3,281.8,398.2C281.9,398.3,281.9,398.3,281.8,398.2z M281.4,394.7L281.4,394.7
			c-0.3-0.1-0.4,0-0.4,0.1c-0.3,0.4,0.2,2,0.8,2.9c0.3-0.9,0.2-1.8,0-2.6C281.7,394.9,281.6,394.8,281.4,394.7z"/>
		<polygon class="st17" points="295.1,385.1 287.2,383.2 284.9,391.9 292.8,393.9 		"/>
		<polygon class="st23" points="343.1,402 335,403 333.2,385.5 341.3,384.5 		"/>
		<path class="st29" d="M334.1,400.4l9.5-0.1c0.3,0,0.6,0.2,0.7,0.5l1.6,7c0.1,0.6-0.3,1.2-0.9,1.4c-0.1,0-0.2,0-0.3,0
			c-3.1,0-5.3-0.2-9.2-0.1c-2.4,0-9.6,0.4-12.9,0.4c-3.3,0-3.8-3.2-2.4-3.5c6-1.4,10.6-3.3,12.5-5.1
			C333.1,400.6,333.6,400.4,334.1,400.4z"/>
		<path class="st9" d="M331.5,401.8c-0.5,0-1.1-0.1-1.5-0.4c-0.3-0.2-0.5-0.6-0.4-1c0-0.2,0.1-0.4,0.3-0.5c0.9-0.5,3.4,1.1,3.7,1.2
			c0.1,0,0.1,0.1,0.1,0.2c0,0.1-0.1,0.1-0.1,0.2C332.9,401.7,332.2,401.8,331.5,401.8z M330.3,400.2c-0.1,0-0.2,0-0.2,0.1
			c-0.1,0-0.1,0.1-0.1,0.2c0,0.3,0.1,0.5,0.3,0.7c0.9,0.4,1.9,0.4,2.8,0.1C332.2,400.7,331.2,400.4,330.3,400.2z"/>
		<path class="st9" d="M333.5,401.5L333.5,401.5c-0.9-0.4-2.5-2.1-2.3-3c0.1-0.3,0.3-0.5,0.6-0.5c0.3,0,0.6,0,0.8,0.2
			c0.9,0.7,1.1,3,1.2,3.1c0,0.1,0,0.1-0.1,0.2C333.5,401.5,333.5,401.5,333.5,401.5z M331.9,398.3L331.9,398.3
			c-0.3,0-0.3,0.1-0.4,0.2c-0.1,0.5,0.9,1.8,1.7,2.4c-0.1-0.9-0.4-1.7-1-2.4C332.2,398.4,332,398.3,331.9,398.3z"/>
		<polygon class="st17" points="341.3,384.5 333.2,385.5 334.1,394.5 342.2,393.6 		"/>
		<path class="st9" d="M305.4,242.4c0,0-20.4,99.7-21.1,137.9l13.6,6.1c0,0,11.1-43.2,14.6-67.5c0,0,9.5-19.3,12.1-35
			c0,0-0.5,69,6.6,105.4l12.7-1c0,0,12.9-129.4,10.5-150.2L305.4,242.4z"/>
		<path class="st19" d="M305.4,242.4c0,0-20.4,99.7-21.1,137.9l13.6,6.1c0,0,11.1-43.2,14.6-67.5c0,0,9.5-19.3,12.1-35
			c0,0-0.5,69,6.6,105.4l12.7-1c0,0,12.9-129.4,10.5-150.2L305.4,242.4z"/>
		<path class="st17" d="M322.4,258.7c0,0-1.5,23.7,0.6,32.4c0.6-2.4,1.2-4.9,1.6-7.2L322.4,258.7z"/>
		<polygon class="st9" points="329.6,392.1 347.1,389.5 346.6,384.7 328.4,387.1 		"/>
		<polygon class="st9" points="282,384 298.9,389.2 300.5,384.6 283.1,378.9 		"/>
		<path class="st9" d="M305.4,164.1c0,0,2.2-4.3,21.1-5.4c19-1.1,27.5,1.7,27.5,1.7s-1.7,40.2,0.5,77.7c0,0-31.7,11.3-49.1,4.3
			C305.4,242.4,292.4,193.8,305.4,164.1z"/>
		<path class="st30" d="M333.3,158.5c-2.1,0-4.4,0.1-6.8,0.2c-1.5,0.1-2.8,0.2-4.1,0.3c0,0,1.6,3.1,4.1,3.1
			C329.6,162.1,332.3,160.3,333.3,158.5z"/>
		<path class="st31" d="M353.5,210.7l-28.9,14.6c0,0,18.2,0.6,29.1-5.3C353.6,216.8,353.6,213.7,353.5,210.7z"/>
		<polygon class="st28" points="326.2,170 336.4,215.6 334.2,221.6 		"/>
		<g>
			<g>
				<g>
					<g>
						
							<rect x="275.9" y="173.8" transform="matrix(0.9882 -0.1529 0.1529 0.9882 -27.011 48.7167)" class="st9" width="54.6" height="52.2"/>
						
							<rect x="275.9" y="173.8" transform="matrix(0.9882 -0.1529 0.1529 0.9882 -27.011 48.7167)" class="st11" width="54.6" height="52.2"/>
						
							<rect x="247.4" y="179.2" transform="matrix(0.9882 -0.1529 0.1529 0.9882 -28.2374 43.4875)" class="st9" width="42.3" height="52.2"/>
						
							<rect x="247.4" y="179.2" transform="matrix(0.9882 -0.1529 0.1529 0.9882 -28.2374 43.4875)" class="st10" width="42.3" height="52.2"/>
					</g>
				</g>
				
					<rect x="259.7" y="179.4" transform="matrix(0.9882 -0.1529 0.1529 0.9882 -25.3888 42.8203)" class="st10" width="12" height="14.1"/>
				
					<rect x="303.8" y="172.6" transform="matrix(0.9882 -0.1529 0.1529 0.9882 -23.8236 49.4951)" class="st12" width="12" height="14.1"/>
			</g>
			
				<rect x="276.8" y="218.5" transform="matrix(0.9882 -0.1529 0.1529 0.9882 -30.6914 45.9461)" class="st32" width="13.1" height="8"/>
			<path class="st33" d="M309.4,224.9l-1.3-1.8l-4.3,0.9c0,0-0.3,1-0.3,2.3l5.9-0.9L309.4,224.9z"/>
			<g>
				<path class="st3" d="M302,203.2c-1,0.3-2.4,0.3-2.5-1c-0.1-1.1,1.2-2,2.2-1.8c0.4,0.1,0.5-0.5,0.1-0.6c-1.4-0.2-3,1-2.9,2.5
					c0.2,1.7,2,2,3.4,1.5C302.6,203.6,302.4,203.1,302,203.2z"/>
				<path class="st3" d="M303,197.7c-0.1-0.4-0.7-0.3-0.6,0.1c0.4,1.9,0.8,3.8,1.3,5.7c0.1,0.4,0.7,0.3,0.6-0.1
					C303.9,201.5,303.4,199.6,303,197.7z"/>
				<path class="st3" d="M306.6,198.8c0,0-0.1,0-0.1,0.1c-2.7,0.5-1.1,4.7,1.4,3.9c1.1-0.4,1.5-1.7,1.3-2.7
					C308.8,198.9,307.6,198.4,306.6,198.8z M307.9,202.1c-1.8,1-3.3-2.3-1.3-2.7c0.1,0,0.1,0,0.2-0.1c0,0,0,0,0,0
					C308.5,198.7,309.2,201.4,307.9,202.1z"/>
				<path class="st3" d="M311.5,197.3c-0.4,0.1-0.7,0.1-1.1,0.2c-0.1-0.4-0.1-0.8-0.2-1.2c-0.1-0.4-0.7-0.3-0.6,0.1
					c0.1,0.4,0.1,0.8,0.2,1.2c-0.4,0.1-0.7,0.1-1.1,0.2c-0.4,0.1-0.3,0.7,0.1,0.6c0.4-0.1,0.7-0.1,1.1-0.2c0.2,1.4,0.4,2.9,0.7,4.3
					c0.1,0.4,0.7,0.3,0.6-0.1c-0.2-1.4-0.4-2.9-0.7-4.3c0.4-0.1,0.7-0.1,1.1-0.2C312,197.8,311.9,197.2,311.5,197.3z"/>
				<path class="st3" d="M315.7,198.1c-0.8-0.4-1.7-0.4-2.4,0.1c-0.1-0.8-0.3-1.6-0.4-2.3c-0.1-0.4-0.7-0.3-0.6,0.1c0.4,2,0.8,4,1,6
					c0.1,0.4,0.6,0.3,0.6-0.1c-0.1-1-0.3-2-0.5-3c0,0,0,0,0,0c0.6-0.6,1.8-0.6,2.3,0.1c0.4,0.6,0.5,1.7,0.6,2.4
					c0,0.4,0.6,0.3,0.6-0.1C316.8,200.2,316.8,198.6,315.7,198.1z"/>
				<path class="st3" d="M318.2,196.9c-1.1,0.4-1.2,1.9-0.7,2.8c0.7,1.2,1.9,1.5,3.1,0.9c0.3-0.2,0.1-0.7-0.2-0.6
					c-0.7,0.3-1.3,0.4-1.9-0.1c-0.2-0.2-0.3-0.4-0.5-0.6c0.9,0.1,2.5-0.1,2.5-1.1C320.6,197.1,319.2,196.5,318.2,196.9z
					 M319.9,198.4c-0.1,0.1-0.5,0.2-0.7,0.3c-0.5,0.2-0.9,0.2-1.4,0.1c0,0,0,0,0,0c-0.1-0.3,0-0.7,0.2-0.9c0.3-0.4,0.8-0.5,1.2-0.4
					C319.6,197.5,320.2,198,319.9,198.4z"/>
				<path class="st3" d="M325,198.1c-0.3-0.6-1-0.8-1.7-0.7c-0.5,0.1-1.6,0.6-1.4-0.4c0.2-0.6,1-0.9,1.6-0.8c0.4,0,0.5-0.6,0.1-0.6
					c-1-0.1-2.9,0.8-2.3,2.1c0.3,0.6,1,0.5,1.6,0.4c0.3-0.1,0.6-0.2,1-0.2c0.6,0.1,0.8,0.7,0.5,1.1c-0.4,0.5-1.2,0.5-1.8,0.4
					c-0.4-0.1-0.5,0.5-0.1,0.6c0.7,0.1,1.6,0.2,2.2-0.4C325.1,199.3,325.3,198.6,325,198.1z"/>
			</g>
		</g>
		<path class="st23" d="M334.2,214.6l-17.5,4.3c0,0-2-1.4-4.5-1c-2.5,0.4-8.7,5.4-8.5,6.2c0.2,0.7,6,5.3,7.1,4.9
			c1.1-0.3,7.8-5.1,7.8-5.1l16.6-1.4L334.2,214.6z"/>
		<path class="st9" d="M352.9,160.4c0,0-7.3,2-6.3,15.6c0.5,5.9,0.7,12.2,0.8,17.5c0.2,7.2-3.9,13.8-10.3,17l-14.3,5.9l1.9,9
			c0,0,20.8-1.9,28.2-7.8s9.9-18.4,8.7-28.7C359.8,174.4,360.4,159.8,352.9,160.4z"/>
		<path class="st28" d="M352.9,160.4c0,0-7.3,2-6.3,15.6c0.5,5.9,0.7,12.2,0.8,17.5c0.2,7.2-3.9,13.8-10.3,17l-14.3,5.9l1.9,9
			c0,0,20.8-1.9,28.2-7.8s9.9-18.4,8.7-28.7C359.8,174.4,360.4,159.8,352.9,160.4z"/>
		<polygon class="st9" points="324.1,214 325.3,226.5 322,226.9 320.2,215.1 		"/>
		<polygon class="st19" points="324.1,214 325.3,226.5 322,226.9 320.2,215.1 		"/>
		
			<rect x="330.2" y="180.1" transform="matrix(0.996 -8.910698e-02 8.910698e-02 0.996 -14.7969 30.6622)" class="st20" width="11.7" height="1.9"/>
		<path class="st9" d="M326.5,158.7l3.8,5l7.9-5.2V158c0-0.9-0.3-1.7-1-2.2c-0.6-0.4-1.4-0.5-2.5-0.2L326.5,158.7z"/>
		<path class="st9" d="M321.2,159.1l0.9-1.5c1.2-1.4,2.1-0.7,2.1-0.7l2.3,1.8l-3.3,5L321.2,159.1z"/>
		<path class="st19" d="M326.5,158.7l3.8,5l7.9-5.2V158c0-0.9-0.3-1.7-1-2.2c-0.6-0.4-1.4-0.5-2.5-0.2L326.5,158.7z"/>
		<path class="st19" d="M321.2,159.1l0.9-1.5c1.2-1.4,2.1-0.7,2.1-0.7l2.3,1.8l-3.3,5L321.2,159.1z"/>
		<path class="st29" d="M339.6,133.7c0.5-3.4-1.8-3.9-3.4-3.5c-1.6,0.4-3.2,2.9-3.2,2.9c-1.5-2.5-2.4-8.7-2.4-8.7s-5.4,3.5-12.7,0.5
			c0,0-1,3.1-4.1,5.1c0,0-2.8-1.3-1.2-7.8c1.8-7.4,12.9-14.5,24-7.2c11.2,7.3,4.4,21,4.4,21s-2.5,4.5-4.8,6.1c0,0,0.3-2.3,0-4
			C336.1,138.2,339.1,137,339.6,133.7z"/>
		<g>
			<path class="st29" d="M316.6,123.1c0.6,0.8,1.4,1.5,2.2,2.1c0.8,0.6,1.8,1.1,2.7,1.5c1,0.4,2,0.6,3,0.7c1,0.1,2.1,0,3.2-0.1
				c-1,0.2-2.1,0.4-3.2,0.3c-1.1,0-2.1-0.2-3.2-0.5c-1-0.3-2-0.8-3-1.3c-0.9-0.6-1.8-1.2-2.6-2.1L316.6,123.1z"/>
		</g>
	</g>
</g>
<g id="Love">
	<g>
		<g>
			<path class="st9" d="M445.2,179.6c-8.1-7.2-17.6,2.6-17.6,2.6s-9.5-9.8-17.6-2.6c-11.5,10.3,5.2,28.8,17.6,32.5
				C439.9,208.5,456.7,190,445.2,179.6z"/>
			<path class="st19" d="M445.2,179.6c-8.1-7.2-17.6,2.6-17.6,2.6s-9.5-9.8-17.6-2.6c-11.5,10.3,5.2,28.8,17.6,32.5
				C439.9,208.5,456.7,190,445.2,179.6z"/>
		</g>
		<g>
			<path class="st9" d="M281.7,83.3c-8.1-7.2-17.6,2.6-17.6,2.6s-9.5-9.8-17.6-2.6c-11.5,10.3,5.2,28.8,17.6,32.5
				C276.4,112.2,293.2,93.7,281.7,83.3z"/>
			<path class="st19" d="M281.7,83.3c-8.1-7.2-17.6,2.6-17.6,2.6s-9.5-9.8-17.6-2.6c-11.5,10.3,5.2,28.8,17.6,32.5
				C276.4,112.2,293.2,93.7,281.7,83.3z"/>
		</g>
		<g>
			<path class="st9" d="M376.8,113.4c-3.3-3-7.2,1.1-7.2,1.1s-3.9-4-7.2-1.1c-4.7,4.2,2.1,11.8,7.2,13.3
				C374.7,125.2,381.6,117.6,376.8,113.4z"/>
			<path class="st19" d="M376.8,113.4c-3.3-3-7.2,1.1-7.2,1.1s-3.9-4-7.2-1.1c-4.7,4.2,2.1,11.8,7.2,13.3
				C374.7,125.2,381.6,117.6,376.8,113.4z"/>
		</g>
		<g>
			<path class="st9" d="M74.5,192.9c-3.3-3-7.2,1.1-7.2,1.1s-3.9-4-7.2-1.1c-4.7,4.2,2.1,11.8,7.2,13.3
				C72.3,204.6,79.2,197.1,74.5,192.9z"/>
			<path class="st19" d="M74.5,192.9c-3.3-3-7.2,1.1-7.2,1.1s-3.9-4-7.2-1.1c-4.7,4.2,2.1,11.8,7.2,13.3
				C72.3,204.6,79.2,197.1,74.5,192.9z"/>
		</g>
	</g>
</g>
</svg>
